<svg width="27" height="29" viewBox="0 0 27 29" fill="none" xmlns="http://www.w3.org/2000/svg">
<path d="M13.5842 11.5507H16.2251V7.58936H20.1864V4.94849H16.2251V0.987183H13.5842V4.94849H9.62294V7.58936H13.5842V11.5507ZM8.3025 23.4346C6.85002 23.4346 5.67483 24.623 5.67483 26.0755C5.67483 27.528 6.85002 28.7163 8.3025 28.7163C9.75498 28.7163 10.9434 27.528 10.9434 26.0755C10.9434 24.623 9.75498 23.4346 8.3025 23.4346ZM21.5069 23.4346C20.0544 23.4346 18.8792 24.623 18.8792 26.0755C18.8792 27.528 20.0544 28.7163 21.5069 28.7163C22.9593 28.7163 24.1477 27.528 24.1477 26.0755C24.1477 24.623 22.9593 23.4346 21.5069 23.4346ZM9.75498 16.8324H19.5922C20.5826 16.8324 21.454 16.291 21.903 15.4724L26.9999 6.21611L24.7023 4.94849L19.5922 14.1915H10.3228L4.69771 2.30762H0.379883V4.94849H3.02076L7.77433 14.9706L5.99174 18.1925C5.02782 19.9619 6.29544 22.1142 8.3025 22.1142H24.1477V19.4733H8.3025L9.75498 16.8324Z" fill="#5A5F72"/>
</svg>
