<svg width="23" height="26" viewBox="0 0 23 26" fill="none" xmlns="http://www.w3.org/2000/svg">
<path d="M23 7.25377H18.9606C18.3138 6.17044 17.4225 5.23988 16.3444 4.53155L18.6875 2.26766L16.6606 0.309326L13.5413 3.32322C12.88 3.17044 12.2044 3.0871 11.5 3.0871C10.7956 3.0871 10.12 3.17044 9.47313 3.32322L6.33937 0.309326L4.3125 2.26766L6.64125 4.53155C5.5775 5.23988 4.68625 6.17044 4.03937 7.25377H0V10.0315H3.00438C2.9325 10.4899 2.875 10.9482 2.875 11.4204V12.8093H0V15.5871H2.875V16.976C2.875 17.4482 2.9325 17.9065 3.00438 18.3649H0V21.1427H4.03937C5.53437 23.6288 8.30875 25.3093 11.5 25.3093C14.6912 25.3093 17.4656 23.6288 18.9606 21.1427H23V18.3649H19.9956C20.0675 17.9065 20.125 17.4482 20.125 16.976V15.5871H23V12.8093H20.125V11.4204C20.125 10.9482 20.0675 10.4899 19.9956 10.0315H23V7.25377ZM17.25 12.8093V16.976C17.25 17.2815 17.2069 17.6288 17.1494 17.9482L17.0056 18.851L16.4737 19.7538C15.4388 21.476 13.5413 22.5315 11.5 22.5315C9.45875 22.5315 7.56125 21.4621 6.52625 19.7538L5.99438 18.8649L5.85062 17.9621C5.79312 17.6427 5.75 17.2954 5.75 16.976V11.4204C5.75 11.101 5.79312 10.7538 5.85062 10.4482L5.99438 9.54544L6.52625 8.64266C6.9575 7.92044 7.56125 7.29544 8.26562 6.82322L9.085 6.28155L10.1488 6.03155C10.5944 5.92044 11.0544 5.86488 11.5 5.86488C11.96 5.86488 12.4056 5.92044 12.8656 6.03155L13.8431 6.25377L14.72 6.8371C15.4387 7.30933 16.0281 7.92044 16.4594 8.65655L17.0056 9.55933L17.1494 10.4621C17.2069 10.7677 17.25 11.1149 17.25 11.4204V12.8093ZM8.625 15.5871H14.375V18.3649H8.625V15.5871ZM8.625 10.0315H14.375V12.8093H8.625V10.0315Z" fill="#636671"/>
</svg>
