<svg width="25" height="26" viewBox="0 0 25 26" fill="none" xmlns="http://www.w3.org/2000/svg">
<path d="M12.5 0.394196C5.6 0.394196 0 5.9942 0 12.8942C0 19.7942 5.6 25.3942 12.5 25.3942C19.4 25.3942 25 19.7942 25 12.8942C25 5.9942 19.4 0.394196 12.5 0.394196ZM6.3375 20.7442C6.875 19.6192 10.15 18.5192 12.5 18.5192C14.85 18.5192 18.1375 19.6192 18.6625 20.7442C16.9625 22.0942 14.825 22.8942 12.5 22.8942C10.175 22.8942 8.0375 22.0942 6.3375 20.7442ZM20.45 18.9317C18.6625 16.7567 14.325 16.0192 12.5 16.0192C10.675 16.0192 6.3375 16.7567 4.55 18.9317C3.275 17.2567 2.5 15.1692 2.5 12.8942C2.5 7.3817 6.9875 2.8942 12.5 2.8942C18.0125 2.8942 22.5 7.3817 22.5 12.8942C22.5 15.1692 21.725 17.2567 20.45 18.9317ZM12.5 5.3942C10.075 5.3942 8.125 7.3442 8.125 9.7692C8.125 12.1942 10.075 14.1442 12.5 14.1442C14.925 14.1442 16.875 12.1942 16.875 9.7692C16.875 7.3442 14.925 5.3942 12.5 5.3942ZM12.5 11.6442C11.4625 11.6442 10.625 10.8067 10.625 9.7692C10.625 8.7317 11.4625 7.8942 12.5 7.8942C13.5375 7.8942 14.375 8.7317 14.375 9.7692C14.375 10.8067 13.5375 11.6442 12.5 11.6442Z" fill="#5A5F72"/>
</svg>
