<svg width="25" height="26" viewBox="0 0 25 26" fill="none" xmlns="http://www.w3.org/2000/svg">
<path d="M22.2222 0.690704H2.77778C1.25 0.690704 0 1.9407 0 3.46848V13.1907C0 14.7185 1.25 15.9685 2.77778 15.9685H22.2222C23.75 15.9685 25 14.7185 25 13.1907V3.46848C25 1.9407 23.75 0.690704 22.2222 0.690704ZM2.77778 10.4129H7.125C7.41667 11.4963 8.05555 12.4546 8.88889 13.1907H2.77778V10.4129ZM22.2222 13.1907H16.1111C16.9444 12.4546 17.5833 11.4963 17.875 10.4129H22.2222V13.1907ZM22.2222 7.63515H15.2778V9.02404C15.2778 10.5101 13.9861 11.8018 12.5 11.8018C11.0139 11.8018 9.72222 10.5101 9.72222 9.02404V7.63515H2.77778V3.46848H22.2222V7.63515ZM19.4444 17.3574H15.2778V18.7463C15.2778 19.399 15.0139 19.9963 14.6111 20.4824C14.0972 21.1074 13.3333 21.524 12.5 21.524C11.6667 21.524 10.9028 21.1074 10.3889 20.4824C9.98611 19.9963 9.72222 19.399 9.72222 18.7463V17.3574H0V22.9129C0 24.4407 1.25 25.6907 2.77778 25.6907H22.2222C23.75 25.6907 25 24.4407 25 22.9129V17.3574H19.4444ZM2.77778 20.1351H7.125C7.15278 20.2601 7.20833 20.3713 7.25 20.4824C7.58333 21.4268 8.15278 22.2601 8.88889 22.9129H2.77778V20.1351ZM22.2222 22.9129H16.1111C16.8611 22.2601 17.4306 21.4268 17.75 20.4824C17.7917 20.3713 17.8472 20.2601 17.875 20.1351H22.2222V22.9129Z" fill="white"/>
</svg>
