<svg width="368" height="104" viewBox="0 0 184 52" fill="none" xmlns="http://www.w3.org/2000/svg">
<rect x="20.1992" y="40.5499" width="10.5181" height="10.5181" rx="1" fill="#445FEB"/>
<rect x="31.2263" y="30.3711" width="10.5181" height="10.5181" rx="1" fill="#445FEB"/>
<rect x="42.2534" y="20.1923" width="10.5181" height="10.5181" rx="1" fill="#445FEB"/>
<rect x="10.0205" y="29.5229" width="10.5181" height="10.5181" rx="1" fill="#445FEB"/>
<rect x="21.0476" y="19.3441" width="8.54595" height="8.54595" rx="1" fill="#445FEB"/>
<rect x="0.689941" y="19.7894" width="8.54595" height="8.54595" rx="1" fill="#445FEB"/>
<rect x="12.5227" y="10.5861" width="5.25905" height="5.25905" rx="1" fill="#445FEB"/>
<rect x="24.3557" y="0.0679932" width="5.25905" height="5.25905" rx="1" fill="#445FEB"/>
<rect x="32.0747" y="10.0135" width="8.54595" height="8.54595" rx="1" fill="#445FEB"/>
<path d="M89.8772 17.1599C90.3219 17.1599 90.7132 17.4536 90.8374 17.8806L94.9189 31.9132C94.9325 31.9599 94.9753 31.9921 95.024 31.9921V31.9921C95.0727 31.9921 95.1156 31.9599 95.1292 31.9132L99.2106 17.8806C99.3348 17.4536 99.7261 17.1599 100.171 17.1599H104.488C105.169 17.1599 105.651 17.8264 105.437 18.4734L99.1538 37.5095C99.0186 37.9193 98.6358 38.1961 98.2042 38.1961H91.8438C91.4123 38.1961 91.0295 37.9193 90.8942 37.5095L84.6108 18.4734C84.3972 17.8264 84.8791 17.1599 85.5604 17.1599H89.8772Z" fill="#445FEB"/>
<path d="M113.574 38.4837C111.863 38.4837 110.397 38.1447 109.178 37.4668C107.959 36.782 107.025 35.8302 106.374 34.6113C105.724 33.3856 105.398 31.9647 105.398 30.3486C105.398 28.7326 105.724 27.3151 106.374 26.0962C107.025 24.8704 107.959 23.9186 109.178 23.2407C110.397 22.5559 111.863 22.2135 113.574 22.2135C115.122 22.2135 116.461 22.4943 117.591 23.0558C118.727 23.6105 119.607 24.3979 120.23 25.4183C120.696 26.1761 120.99 27.0335 121.111 27.9904C121.181 28.5402 120.725 28.9928 120.17 28.9928H116.83C116.312 28.9928 115.9 28.5911 115.748 28.0968C115.624 27.6936 115.44 27.3623 115.197 27.1028C114.8 26.6645 114.287 26.4454 113.657 26.4454C113.164 26.4454 112.732 26.5892 112.362 26.8768C111.993 27.1576 111.705 27.5856 111.5 28.1608C111.294 28.7291 111.191 29.4447 111.191 30.3075C111.191 31.1703 111.294 31.8894 111.5 32.4646C111.705 33.0329 111.993 33.4609 112.362 33.7485C112.732 34.0293 113.164 34.1696 113.657 34.1696C114.074 34.1696 114.444 34.0738 114.766 33.882C115.088 33.6835 115.348 33.3959 115.547 33.0192C115.627 32.8696 115.694 32.7075 115.75 32.5329C115.907 32.0339 116.321 31.6223 116.844 31.6223H120.161C120.719 31.6223 121.176 32.0807 121.104 32.6341C120.977 33.6088 120.682 34.4836 120.22 35.2584C119.604 36.2856 118.731 37.0799 117.601 37.6414C116.478 38.2029 115.136 38.4837 113.574 38.4837Z" fill="#445FEB"/>
<path d="M129.185 29.3215V37.1961C129.185 37.7484 128.737 38.1961 128.185 38.1961H124.515C123.963 38.1961 123.515 37.7484 123.515 37.1961V18.1599C123.515 17.6076 123.963 17.1599 124.515 17.1599H127.979C128.532 17.1599 128.979 17.6076 128.979 18.1599V25.322C128.979 25.3752 129.022 25.4183 129.076 25.4183V25.4183C129.116 25.4183 129.153 25.3924 129.167 25.3541C129.525 24.3783 130.11 23.6156 130.921 23.0661C131.749 22.4977 132.746 22.2135 133.91 22.2135C135.026 22.2135 135.995 22.4669 136.817 22.9736C137.645 23.4804 138.285 24.1788 138.737 25.069C139.196 25.9592 139.422 26.9795 139.415 28.13V37.1961C139.415 37.7484 138.968 38.1961 138.415 38.1961H134.745C134.193 38.1961 133.745 37.7484 133.745 37.1961V29.3215C133.752 28.5408 133.557 27.9279 133.16 27.4828C132.77 27.0377 132.211 26.8152 131.486 26.8152C131.027 26.8152 130.623 26.9179 130.274 27.1233C129.931 27.3219 129.664 27.6095 129.472 27.9862C129.287 28.3559 129.192 28.801 129.185 29.3215Z" fill="#445FEB"/>
<path d="M146.61 38.4426C145.604 38.4426 144.714 38.2783 143.94 37.9496C143.173 37.614 142.57 37.1073 142.132 36.4294C141.694 35.7515 141.475 34.8887 141.475 33.841C141.475 32.9781 141.622 32.242 141.916 31.6326C142.211 31.0163 142.622 30.513 143.149 30.1226C143.676 29.7323 144.289 29.4344 144.988 29.229C145.693 29.0236 146.453 28.8901 147.268 28.8284C148.151 28.7599 148.86 28.6778 149.394 28.5819C149.935 28.4792 150.325 28.3388 150.565 28.1608C150.805 27.9759 150.925 27.7328 150.925 27.4315V27.3904C150.925 26.9795 150.767 26.6645 150.452 26.4454C150.137 26.2263 149.733 26.1167 149.24 26.1167C148.699 26.1167 148.257 26.2366 147.915 26.4762C147.802 26.5546 147.704 26.6473 147.622 26.7544C147.317 27.1488 146.938 27.5547 146.44 27.5547H143.165C142.585 27.5547 142.117 27.0573 142.271 26.4976C142.424 25.9376 142.669 25.4066 143.005 24.9047C143.553 24.0898 144.351 23.4393 145.398 22.9531C146.446 22.46 147.754 22.2135 149.322 22.2135C150.452 22.2135 151.465 22.3471 152.363 22.6141C153.26 22.8743 154.023 23.2407 154.653 23.7132C155.283 24.1788 155.762 24.7266 156.091 25.3566C156.427 25.9798 156.594 26.6577 156.594 27.3904V37.1961C156.594 37.7484 156.147 38.1961 155.594 38.1961H152.294C151.742 38.1961 151.294 37.7484 151.294 37.1961V36.0545C151.294 36.0119 151.26 35.9774 151.217 35.9774V35.9774C151.189 35.9774 151.163 35.9931 151.149 36.0181C150.838 36.5883 150.462 37.0507 150.021 37.4052C149.576 37.7681 149.065 38.0318 148.49 38.1961C147.922 38.3604 147.295 38.4426 146.61 38.4426ZM148.459 34.8681C148.891 34.8681 149.295 34.7791 149.671 34.601C150.055 34.423 150.366 34.1662 150.606 33.8307C150.846 33.4951 150.966 33.0877 150.966 32.6084V31.8071C150.966 31.5621 150.716 31.3935 150.483 31.4682V31.4682C150.318 31.523 150.14 31.5744 149.949 31.6223C149.764 31.6702 149.565 31.7147 149.353 31.7558C149.148 31.7969 148.932 31.8346 148.706 31.8688C148.268 31.9373 147.908 32.0503 147.627 32.2078C147.353 32.3584 147.148 32.5467 147.011 32.7727C146.881 32.9918 146.816 33.2384 146.816 33.5123C146.816 33.9505 146.97 34.2861 147.278 34.5189C147.586 34.7517 147.98 34.8681 148.459 34.8681Z" fill="#445FEB"/>
<path d="M160.304 38.1961C159.751 38.1961 159.304 37.7484 159.304 37.1961V23.419C159.304 22.8667 159.751 22.419 160.304 22.419H163.973C164.526 22.419 164.973 22.8667 164.973 23.419V37.1961C164.973 37.7484 164.526 38.1961 163.973 38.1961H160.304ZM162.139 20.7755C161.372 20.7755 160.714 20.5221 160.166 20.0154C159.619 19.5087 159.345 18.8992 159.345 18.1871C159.345 17.4749 159.619 16.8655 160.166 16.3587C160.714 15.852 161.372 15.5986 162.139 15.5986C162.912 15.5986 163.57 15.852 164.111 16.3587C164.658 16.8655 164.932 17.4749 164.932 18.1871C164.932 18.8992 164.658 19.5087 164.111 20.0154C163.57 20.5221 162.912 20.7755 162.139 20.7755Z" fill="#445FEB"/>
<path d="M173.532 29.3215V37.1961C173.532 37.7484 173.085 38.1961 172.532 38.1961H168.862C168.31 38.1961 167.862 37.7484 167.862 37.1961V23.419C167.862 22.8667 168.31 22.419 168.862 22.419H172.245C172.797 22.419 173.245 22.8667 173.245 23.419V25.3224C173.245 25.3753 173.288 25.4183 173.341 25.4183V25.4183C173.381 25.4183 173.418 25.3921 173.432 25.3535C173.778 24.3846 174.373 23.6221 175.217 23.0661C176.086 22.4977 177.1 22.2135 178.257 22.2135C179.373 22.2135 180.342 22.4703 181.164 22.9839C181.993 23.4906 182.633 24.1891 183.085 25.0793C183.544 25.9695 183.77 26.9864 183.763 28.13V37.1961C183.763 37.7484 183.315 38.1961 182.763 38.1961H179.093C178.541 38.1961 178.093 37.7484 178.093 37.1961V29.3215C178.1 28.5408 177.901 27.9279 177.497 27.4828C177.1 27.0377 176.545 26.8152 175.833 26.8152C175.367 26.8152 174.96 26.9179 174.611 27.1233C174.268 27.3219 174.005 27.6095 173.82 27.9862C173.635 28.3559 173.539 28.801 173.532 29.3215Z" fill="#445FEB"/>
</svg>
